<svg width="20" height="20" viewBox="0 0 20 20" fill="none" xmlns="http://www.w3.org/2000/svg">
<path d="M1.66669 10.4167V9.58337C1.66669 9.35325 1.85324 9.16671 2.08335 9.16671H15.5584L11.85 5.46671C11.7711 5.38847 11.7268 5.28197 11.7268 5.17087C11.7268 5.05977 11.7711 4.95328 11.85 4.87504L12.4417 4.29171C12.5199 4.21283 12.6264 4.16846 12.7375 4.16846C12.8486 4.16846 12.9551 4.21283 13.0334 4.29171L18.15 9.40004C18.2673 9.51714 18.3332 9.676 18.3334 9.84171V10.1584C18.3314 10.3237 18.2658 10.4819 18.15 10.6L13.0334 15.7084C12.9551 15.7873 12.8486 15.8316 12.7375 15.8316C12.6264 15.8316 12.5199 15.7873 12.4417 15.7084L11.85 15.1167C11.7716 15.0399 11.7275 14.9348 11.7275 14.825C11.7275 14.7153 11.7716 14.6102 11.85 14.5334L15.5584 10.8334H2.08335C1.85324 10.8334 1.66669 10.6468 1.66669 10.4167Z" fill="#FD5359"/>
</svg>
