<svg width="24" height="24" viewBox="0 0 24 24" fill="none" xmlns="http://www.w3.org/2000/svg">
<path d="M21 11.79C21 15.94 18.79 21 12.13 21C7.12461 21.0333 3.03852 17.0054 3 12C3.03852 6.99467 7.12461 2.96676 12.13 3.00002C14.2007 3.0077 16.2085 3.7122 17.83 5.00002C17.942 5.09155 18.0109 5.22563 18.02 5.37002C18.0206 5.51611 17.963 5.65643 17.86 5.76002C17.209 6.35522 16.5882 6.98267 16 7.64002C15.8289 7.82832 15.5422 7.85439 15.34 7.70002C14.4161 7.0163 13.2888 6.664 12.14 6.70002C9.18528 6.70002 6.79 9.0953 6.79 12.05C6.79 15.0047 9.18528 17.4 12.14 17.4C15.14 17.4 16.41 16.12 17.07 13.85H12.5C12.2239 13.85 12 13.6262 12 13.35V10.7C12 10.4239 12.2239 10.2 12.5 10.2H20.5C20.7302 10.1986 20.9244 10.3712 20.95 10.6C20.9871 10.9956 21.0038 11.3928 21 11.79Z" fill="#E9EAF1"/>
</svg>
