<svg width="34" height="34" viewBox="0 0 34 34" fill="none" xmlns="http://www.w3.org/2000/svg">
<path fill-rule="evenodd" clip-rule="evenodd" d="M28.0976 17.2625C28.0976 16.4424 28.0242 15.655 27.8868 14.8988H17V19.3691H23.222C23.0933 20.0766 22.8224 20.7507 22.4257 21.3505C22.029 21.9503 21.5148 22.4635 20.9141 22.8589V25.7598H24.65C26.8369 23.747 28.0976 20.7958 28.0976 17.2734V17.2625Z" fill="#4285F4"/>
<path fill-rule="evenodd" clip-rule="evenodd" d="M17 28.5601C20.1212 28.5601 22.7392 27.5265 24.65 25.7585L20.9141 22.859C19.8805 23.5526 18.5558 23.9606 17 23.9606C13.989 23.9606 11.4403 21.9288 10.5318 19.1965H6.66943V22.1913C7.63155 24.1063 9.10719 25.7161 10.9315 26.8408C12.7558 27.9655 14.8569 28.5608 17 28.5601Z" fill="#34A853"/>
<path fill-rule="evenodd" clip-rule="evenodd" d="M10.5323 19.1965C10.3011 18.5029 10.1692 17.7617 10.1692 17.0001C10.1692 16.2385 10.3011 15.4973 10.5323 14.8037V11.809H6.66987C5.86036 13.4196 5.43931 15.1974 5.44043 17.0001C5.44043 18.866 5.88651 20.6313 6.66987 22.1912L10.5323 19.1965Z" fill="#FBBC05"/>
<path fill-rule="evenodd" clip-rule="evenodd" d="M17 10.0367C18.6973 10.0367 20.2205 10.6215 21.42 11.7667L24.7343 8.45098C22.7324 6.58506 20.1144 5.43994 17 5.43994C14.8568 5.43917 12.7557 6.03439 10.9314 7.1591C9.10703 8.28382 7.63142 9.89369 6.66943 11.8088L10.5318 14.8035C11.4403 12.0699 13.989 10.0381 17 10.0381V10.0367Z" fill="#EA4335"/>
</svg>
