<svg width="22" height="24" viewBox="0 0 22 24" fill="none" xmlns="http://www.w3.org/2000/svg">
<g clip-path="url(#clip0_4_4252)">
<path d="M16.5851 17.0084C15.3253 18.1217 13.6961 18.7259 12.0151 18.7033C8.14123 18.7033 5.29634 15.8584 5.29634 11.9542C5.29634 8.05005 8.05044 5.32622 12.0151 5.32622C13.6999 5.30343 15.3353 5.89518 16.6154 6.99078L17.4628 7.71714L21.2156 3.9643L20.2774 3.08662C18.0075 1.0586 15.0588 -0.0431197 12.0151 -0.0003889C5.05422 -0.0003889 0 5.02357 0 11.9239C0 18.8243 5.17528 23.9996 12.0151 23.9996C15.0876 24.0408 18.0616 22.9161 20.338 20.8521L21.2459 20.0046L17.4325 16.2518L16.5851 17.0084Z" fill="#17313B"/>
<path d="M11.8333 16.01C14.0564 16.01 15.8585 14.2079 15.8585 11.9848C15.8585 9.76175 14.0564 7.95959 11.8333 7.95959C9.61026 7.95959 7.80811 9.76175 7.80811 11.9848C7.80811 14.2079 9.61026 16.01 11.8333 16.01Z" fill="#FF3D2E"/>
</g>
<defs>
<clipPath id="clip0_4_4252">
<rect width="21.2459" height="24" fill="white"/>
</clipPath>
</defs>
</svg>
