<svg width="24" height="24" viewBox="0 0 24 24" fill="none" xmlns="http://www.w3.org/2000/svg">
<path d="M6.83003 3.91999C6.73537 3.82611 6.68213 3.69831 6.68213 3.56499C6.68213 3.43167 6.73537 3.30388 6.83003 3.20999L7.89003 2.14999C7.98076 2.05332 8.10744 1.99847 8.24003 1.99847C8.37261 1.99847 8.49929 2.05332 8.59003 2.14999L17.78 11.34C17.9207 11.4805 17.9999 11.6711 18 11.87V12.13C17.9999 12.3288 17.9207 12.5195 17.78 12.66L8.59003 21.85C8.49929 21.9467 8.37261 22.0015 8.24003 22.0015C8.10744 22.0015 7.98076 21.9467 7.89003 21.85L6.83003 20.79C6.73537 20.6961 6.68213 20.5683 6.68213 20.435C6.68213 20.3017 6.73537 20.1739 6.83003 20.08L14.91 12L6.83003 3.91999Z" fill="#D6D7E1"/>
</svg>
