<svg width="150" height="37" viewBox="0 0 150 37" fill="none" xmlns="http://www.w3.org/2000/svg">
<path d="M0 11.2025C0 4.93671 4.93671 0 11.2025 0C17.2785 0 22.4051 4.93671 22.4051 11.2025C22.4051 17.4684 17.4684 22.4051 11.2025 22.4051C4.93671 22.4051 0 17.4684 0 11.2025ZM18.038 11.2025C18.038 7.40506 15 4.36709 11.2025 4.36709C7.40506 4.36709 4.36709 7.40506 4.36709 11.2025C4.36709 15 7.40506 18.038 11.2025 18.038C15 18.038 18.038 15 18.038 11.2025ZM48.4177 11.5823C48.4177 17.6582 43.481 22.4051 37.5949 22.4051C35.1266 22.4051 32.8481 21.6456 30.9494 20.1266V36.2658H26.5823V1.13924H30.7595V3.03797C32.6582 1.51899 34.9367 0.759493 37.4051 0.759493C43.481 0.759493 48.4177 5.50633 48.4177 11.5823ZM44.2405 11.5823C44.2405 7.97468 41.2025 4.93671 37.5949 4.93671C33.9873 4.93671 30.9494 7.97468 30.9494 11.5823C30.9494 15.1899 33.9873 18.2278 37.5949 18.2278C41.2025 18.2278 44.2405 15.3797 44.2405 11.5823ZM63.4177 18.2278C65.6962 18.2278 67.5949 17.4684 68.924 16.3291L72.3418 18.6076C70.6329 20.6962 67.9747 22.4051 63.4177 22.4051C57.1519 22.4051 52.2152 17.4684 52.2152 11.2025C52.2152 4.93671 57.1519 0 63.4177 0C69.4937 0 74.0506 4.93671 74.0506 11.2025V12.9114H56.962C57.5316 15.7595 60.1899 18.2278 63.4177 18.2278ZM69.3038 8.92405C68.5443 6.26582 66.2658 4.36709 63.2278 4.36709C60.1899 4.36709 57.7215 6.26582 56.7722 8.92405H69.3038ZM89.6203 0.56962L89.2405 5.50633C85.0633 4.55696 82.0253 6.26582 82.0253 11.5823V22.0253H77.8481V0.759493H82.0253V3.79747C84.8734 1.13924 87.1519 0.56962 89.6203 0.56962ZM113.734 1.13924V22.4051H109.557V20.3165C107.658 21.8354 105.38 22.5949 102.911 22.5949C97.0253 22.5949 92.0886 17.6582 92.0886 11.7722C92.0886 5.88608 97.0253 0.949367 102.911 0.949367C105.38 0.949367 107.658 1.70886 109.557 3.22785V1.32911H113.734V1.13924ZM109.747 11.5823C109.747 7.78481 106.709 4.74684 102.911 4.74684C99.1139 4.74684 96.076 7.78481 96.076 11.5823C96.076 15.3797 99.1139 18.4177 102.911 18.4177C106.709 18.4177 109.747 15.3797 109.747 11.5823ZM150 11.2025V22.2152H145.823V11.2025C145.823 7.21519 143.924 4.93671 141.076 4.93671C137.468 4.93671 136.139 7.40506 136.139 11.2025V22.2152H131.962V11.2025C131.962 7.21519 130.063 4.93671 127.215 4.93671C124.367 4.93671 122.089 7.02532 122.089 11.2025V22.2152H117.722V0.759493H121.899V3.03797C124.367 0.759493 127.975 0.379747 130.443 1.13924C132.342 1.70886 133.671 2.8481 134.62 4.36709C135.19 3.79747 135.949 3.22785 136.139 3.03797C138.608 0.949367 142.025 0.56962 144.304 1.32911C148.291 2.65823 150 5.31646 150 11.2025Z" fill="#04042F"/>
</svg>
