<svg width="21" height="21" viewBox="0 0 21 21" fill="none" xmlns="http://www.w3.org/2000/svg">
<path d="M1.18014 8.86001C1.01103 8.73689 0.938724 8.51998 1.00014 8.32001L1.08014 8.07001C1.13863 7.87244 1.31447 7.73256 1.52014 7.72001L7.91014 7.21001L10.3601 1.32001C10.4423 1.11367 10.6486 0.984249 10.8701 1.00001H11.1301C11.339 0.995582 11.5277 1.12406 11.6001 1.32001L14.0601 7.21001L20.4501 7.72001C20.6558 7.73256 20.8317 7.87244 20.8901 8.07001L20.9701 8.32001C21.0382 8.51366 20.9783 8.7292 20.8201 8.86001L16.0001 13L17.4801 19.21C17.5289 19.4088 17.4541 19.6175 17.2901 19.74L17.0001 19.9C16.831 20.0144 16.6093 20.0144 16.4401 19.9L11.0001 16.6L5.53014 19.93C5.36098 20.0444 5.1393 20.0444 4.97014 19.93L4.75014 19.78C4.58619 19.6575 4.51138 19.4488 4.56014 19.25L6.00014 13L1.18014 8.86001Z" fill="#F2C94C"/>
</svg>
