<svg width="24" height="24" viewBox="0 0 24 24" fill="none" xmlns="http://www.w3.org/2000/svg">
<path d="M22.0001 6.45002C21.4832 7.13908 20.8585 7.74015 20.1501 8.23002C20.1501 8.41002 20.1501 8.59002 20.1501 8.78002C20.1557 12.0488 18.8494 15.1831 16.524 17.4804C14.1986 19.7776 11.0485 21.0456 7.78007 21C5.8905 21.0063 4.02512 20.5751 2.33007 19.74C2.23867 19.7001 2.17972 19.6097 2.18007 19.51V19.4C2.18007 19.2564 2.29647 19.14 2.44007 19.14C4.29747 19.0788 6.08861 18.4351 7.56007 17.3C5.87886 17.2662 4.3662 16.2707 3.67007 14.74C3.6349 14.6564 3.64585 14.5605 3.69896 14.487C3.75206 14.4135 3.83964 14.3729 3.93007 14.38C4.44102 14.4314 4.95708 14.3838 5.45007 14.24C3.59415 13.855 2.19964 12.3149 2.00007 10.43C1.99297 10.3396 2.03351 10.252 2.10704 10.1989C2.18057 10.1458 2.27646 10.1349 2.36007 10.17C2.85811 10.3897 3.39575 10.5054 3.94007 10.51C2.31385 9.44316 1.61143 7.41395 2.23007 5.57002C2.29392 5.39085 2.44734 5.25848 2.63394 5.22157C2.82054 5.18466 3.0128 5.24865 3.14007 5.39002C5.33455 7.7245 8.3498 9.11561 11.5501 9.27002C11.4681 8.94308 11.4278 8.60708 11.4301 8.27002C11.46 6.50265 12.5541 4.92824 14.2 4.28387C15.846 3.6395 17.7182 4.0527 18.9401 5.33002C19.773 5.17143 20.5782 4.8918 21.3301 4.50002C21.3851 4.46565 21.455 4.46565 21.5101 4.50002C21.5444 4.5551 21.5444 4.62495 21.5101 4.68002C21.1459 5.51363 20.5306 6.21279 19.7501 6.68002C20.4336 6.6008 21.1051 6.43964 21.7501 6.20002C21.8044 6.16307 21.8758 6.16307 21.9301 6.20002C21.9756 6.22083 22.0096 6.26061 22.0231 6.30878C22.0366 6.35695 22.0281 6.40862 22.0001 6.45002Z" fill="#E9EAF1"/>
</svg>
